<?xml version="1.0" encoding="utf-8"?>
<!-- Generator: Adobe Illustrator 16.0.0, SVG Export Plug-In . SVG Version: 6.00 Build 0)  -->
<!DOCTYPE svg PUBLIC "-//W3C//DTD SVG 1.1//EN" "http://www.w3.org/Graphics/SVG/1.1/DTD/svg11.dtd">
<svg version="1.1" id="katman_1" xmlns="http://www.w3.org/2000/svg" xmlns:xlink="http://www.w3.org/1999/xlink" x="0px" y="0px"
	 width="50px" height="50px" viewBox="0 0 50 50" enable-background="new 0 0 50 50" xml:space="preserve">
<g>
	<g>
		<circle fill="#FCCD63" cx="25.067" cy="24.874" r="9.284"/>
		<path fill="#FCCD63" d="M26.301,12.673c0,0.681-0.555,1.231-1.233,1.231l0,0c-0.681,0-1.233-0.551-1.233-1.231V9.422
			c0-0.682,0.552-1.232,1.233-1.232l0,0c0.679,0,1.233,0.551,1.233,1.232V12.673z"/>
		<path fill="#FCCD63" d="M26.301,40.578c0,0.682-0.555,1.232-1.233,1.232l0,0c-0.681,0-1.233-0.552-1.233-1.232V37.33
			c0-0.682,0.552-1.234,1.233-1.234l0,0c0.679,0,1.233,0.553,1.233,1.234V40.578z"/>
		<path fill="#FCCD63" d="M34.965,17.567c-0.482,0.481-1.262,0.48-1.744,0l0,0c-0.484-0.481-0.479-1.263,0-1.743l2.297-2.299
			c0.484-0.482,1.262-0.482,1.744,0l0,0c0.48,0.48,0.482,1.261,0,1.744L34.965,17.567z"/>
		<path fill="#FCCD63" d="M15.234,37.3c-0.485,0.484-1.265,0.484-1.743,0l0,0c-0.485-0.479-0.485-1.259,0-1.741l2.295-2.295
			c0.482-0.486,1.26-0.486,1.742,0l0,0c0.482,0.479,0.482,1.258,0,1.742L15.234,37.3z"/>
		<path fill="#FCCD63" d="M37.328,26.104c-0.682,0-1.232-0.552-1.232-1.229l0,0c0-0.682,0.551-1.233,1.232-1.233h3.25
			c0.682,0,1.232,0.552,1.232,1.233l0,0c0,0.679-0.552,1.229-1.232,1.229H37.328z"/>
		<path fill="#FCCD63" d="M9.421,26.104c-0.682,0-1.232-0.552-1.232-1.229l0,0c0-0.682,0.55-1.233,1.232-1.233h3.25
			c0.682,0,1.232,0.552,1.232,1.233l0,0c0,0.679-0.55,1.229-1.232,1.229H9.421z"/>
		<path fill="#FCCD63" d="M13.423,14.498c-0.483-0.485-0.483-1.263,0-1.744l0,0c0.484-0.483,1.262-0.483,1.743,0l2.298,2.297
			c0.483,0.482,0.483,1.261,0,1.743l0,0c-0.48,0.482-1.261,0.482-1.742,0L13.423,14.498z"/>
		<path fill="#FCCD63" d="M33.283,34.088c-0.48-0.482-0.48-1.263,0-1.744l0,0c0.484-0.482,1.262-0.482,1.744,0l2.299,2.299
			c0.48,0.481,0.48,1.26,0,1.742l0,0c-0.482,0.483-1.264,0.483-1.744,0L33.283,34.088z"/>
	</g>
</g>
</svg>
